<svg width="1032" height="308" viewBox="0 0 1032 308" fill="none" xmlns="http://www.w3.org/2000/svg">
<path d="M10.8331 141C5.23311 141 2.99311 137.64 2.99311 133.8C2.99311 131.24 3.95311 129 7.31311 127.24C12.2731 124.52 13.3931 121.8 13.2331 114.76V49.96C13.3931 43.08 12.2731 40.2 7.31311 37.64C3.95311 35.72 2.99311 33.64 2.99311 30.92C2.99311 27.08 5.23311 23.72 10.6731 23.72H69.2331C94.3531 23.72 107.313 33 107.313 51.72C107.313 59.88 103.313 66.28 91.9531 73.8C89.8731 75.24 89.8731 77 91.7931 78.12C106.513 85.48 112.753 95.24 112.753 108.52C112.753 128.36 97.3931 141 77.8731 141H10.8331ZM44.2731 109.16C44.2731 120.68 49.7131 124.68 60.7531 124.68C72.5931 124.68 80.4331 117 80.4331 107.56C80.4331 100.52 77.5531 95.56 72.4331 91.88C69.0731 89.48 65.2331 88.04 61.2331 88.04C57.2331 88.04 52.5931 89.48 47.6331 91.4C45.3931 92.52 44.2731 94.28 44.2731 96.68V109.16ZM44.2731 71.56C44.2731 74.28 45.8731 75.08 48.1131 74.12C53.2331 72.2 61.0731 69.8 65.0731 67.88C71.4731 65.16 74.8331 60.36 74.8331 54.6C74.8331 45.96 68.9131 40.84 57.5531 40.84H49.0731C45.7131 40.84 44.2731 42.28 44.2731 45.32V71.56ZM148.498 143.72C131.538 143.56 119.698 135.56 119.698 116.04V78.12C119.698 71.24 118.578 68.52 114.258 66.12C111.218 64.04 110.258 61.96 110.258 59.56C110.258 55.88 112.498 52.68 117.778 52.68L120.018 52.84H139.858C145.778 52.84 148.498 55.4 148.338 61.64L148.018 107.24C147.858 115.4 152.018 120.04 159.858 120.04C168.178 120.04 173.618 114.76 173.618 107.4V78.12C173.618 71.24 172.338 68.52 167.538 65.96C164.178 64.04 163.058 61.96 163.218 59.56C163.218 55.88 165.618 52.68 171.538 52.68L173.938 52.84H193.618C200.178 52.84 202.098 55.4 202.098 62.44L201.938 115.72C201.938 122.6 202.738 125.16 206.578 127.56C209.938 129.64 211.058 131.56 211.058 134.12C211.058 137.8 208.818 141 203.538 141H181.778C177.138 141 175.538 139.08 174.418 134.28C173.778 131.72 171.218 130.92 169.458 133.48C164.978 140.04 156.978 143.88 148.498 143.72ZM221.398 141C216.118 141 214.038 137.8 214.038 134.12C214.038 131.56 215.158 129.64 218.518 127.56C222.198 125.16 223.158 122.6 223.158 115.72V78.12C223.158 71.24 221.878 68.52 217.718 66.12C214.678 64.04 213.718 61.96 213.718 59.56C213.718 55.88 215.958 52.68 221.238 52.68L223.478 52.84H243.638C247.318 52.84 249.398 54.44 250.518 57.96L251.318 60.84C251.798 62.6 253.558 62.76 254.678 61C259.478 53.8 263.958 51.4 269.718 51.4C276.118 51.4 279.958 55.08 279.958 64.04C279.958 73.96 275.318 87.08 269.078 87.08C267.318 87.08 265.558 86.12 263.958 84.36C261.878 81.96 260.278 81.16 257.718 81.16C254.038 81.16 251.478 83.72 251.478 89V115.4C251.318 122.28 252.438 125 256.758 127.4C260.598 129.48 261.878 131.56 261.878 133.96C261.878 137.64 259.318 141 253.398 141H221.398ZM324.951 143.56C300.951 143.56 278.711 124.52 278.711 95.88C278.711 69.48 300.471 50.12 326.071 50.12C338.551 50.12 351.511 55.24 358.871 62.12C367.031 69.32 364.951 74.12 357.111 81.8C351.831 86.76 348.311 88.84 345.271 88.84C342.871 88.84 340.791 87.24 338.871 83.72C333.591 74.6 328.631 68.52 321.271 68.52C313.751 68.52 308.311 76.04 308.311 86.6C308.311 105 319.671 120.52 334.551 120.52C342.071 120.52 348.151 117.32 354.231 112.84C357.271 110.44 359.671 110.92 362.871 114.6C365.591 117.8 365.751 120.84 362.231 125.48C354.071 136.04 340.951 143.56 324.951 143.56ZM371.216 141C366.096 141 363.856 137.8 363.856 134.12C363.856 131.56 364.976 129.64 368.336 127.56C372.016 125.16 372.976 122.6 372.976 115.72V47.72C372.976 40.84 371.696 38.12 367.536 35.56C364.496 33.64 363.536 31.56 363.536 29.16C363.536 25.48 365.776 22.28 371.056 22.28H394.096C398.576 22.28 401.296 24.52 401.296 29.32L400.976 59.88C400.976 62.6 403.216 63.4 404.976 60.68C409.136 55.24 416.496 50.76 425.456 50.76C440.016 50.76 448.976 58.6 451.696 76.2L457.456 113.64C458.416 119.72 460.176 123.88 463.536 126.6C466.576 128.84 468.016 131.24 468.016 134.44C468.016 138.12 465.936 141 461.136 141H447.216C435.856 141 430.576 136.68 429.136 124.84L424.816 87.24C423.856 78.28 419.216 74.28 412.336 74.28C405.936 74.28 401.296 78.12 401.296 83.72V115.24C401.296 122.12 402.256 124.84 406.416 127.24C410.096 129.32 411.376 131.4 411.376 133.96C411.376 137.64 408.976 141 403.216 141H371.216ZM504.277 141C498.837 141 496.597 137.64 496.597 133.8C496.597 131.24 497.557 129 500.917 127.24C505.877 124.52 506.837 121.64 506.837 114.76V49.96C506.837 43.08 505.557 40.2 500.757 37.48C497.397 35.56 496.437 33.48 496.437 30.76C496.437 26.92 498.837 23.72 504.117 23.72H577.877C583.157 23.72 585.877 25.48 587.477 29.96C589.077 35.4 593.077 47.72 593.077 53.48C593.077 57.48 590.997 59.4 587.957 59.4C582.997 59.4 574.517 52.68 570.037 49.16C563.477 43.88 557.077 40.36 549.557 40.36C541.077 40.36 537.557 45.48 537.557 57V64.2C537.557 70.12 538.837 71.4 543.957 71.4L571.637 71.56C575.317 71.56 577.877 73.32 577.877 77.16C577.877 81.64 574.837 88.36 571.477 92.04C569.877 93.96 567.637 95.08 565.077 95.08C559.317 95.08 550.037 89.64 544.277 89.64C540.277 89.64 537.717 92.52 537.717 98.28V113.64C537.557 121 539.317 123.88 545.717 126.76C550.037 128.84 551.317 131.08 551.157 133.8C551.157 137.8 548.117 141.16 540.917 141H504.277ZM621.334 142.92C606.134 142.92 591.094 132.2 591.094 112.52C591.094 92.84 609.014 81.32 625.174 81.32C632.054 81.32 637.334 82.6 639.734 82.6C641.334 82.6 642.134 81.8 642.134 80.04C642.134 73.8 637.334 67.72 629.174 67.72C621.494 67.72 612.854 73.8 606.134 78.12C601.334 81 598.454 79.24 596.374 74.44C592.054 63.72 592.534 58.6 598.934 55.72C604.374 53.16 617.494 51.24 627.894 51.24C654.454 51.24 668.854 59.72 671.734 82.76L675.094 110.92C676.374 119.4 678.614 123.88 682.294 127.24C684.534 129.32 685.494 131.24 685.494 133.8C685.494 138.76 678.934 142.76 670.614 142.44C663.574 142.44 657.814 140.52 652.534 135.72C650.294 133.8 649.014 133.96 646.774 135.56C639.574 140.52 630.934 142.92 621.334 142.92ZM620.374 109.16C620.374 116.68 625.334 125 634.454 125C642.934 125 648.214 120.2 647.094 113.16L645.654 103.56C644.694 98.28 642.454 95.88 634.454 95.88C624.854 95.88 620.374 102.76 620.374 109.16ZM695.486 141C690.206 141 687.966 137.8 687.966 134.12C687.966 131.56 689.086 129.64 692.446 127.56C696.286 125.16 697.086 122.6 697.086 115.72V77.96C697.246 71.24 695.966 68.52 691.646 65.96C688.606 64.04 687.646 62.12 687.806 59.56C687.806 55.88 689.886 52.68 695.166 52.68L697.406 52.84H717.246C721.566 52.84 722.846 55.08 724.446 60.52C724.766 62.44 726.526 63.08 728.126 61.16C732.926 54.76 741.246 50.76 750.526 50.76C760.766 50.76 767.806 54.76 773.086 62.12C773.726 63.08 774.206 64.2 775.326 64.2C776.446 64.2 776.926 63.24 777.726 61.96C783.806 54.6 791.166 50.92 801.246 50.92C819.326 50.92 829.886 62.44 829.886 82.76V115.72C829.886 122.6 830.846 125.16 834.526 127.56C837.886 129.64 839.006 131.56 839.006 134.12C839.006 137.8 836.766 141 831.646 141H803.166C796.766 141 793.566 138.28 793.566 133.48C793.566 131.08 794.846 129.16 797.406 126.92C800.446 124.52 801.566 122.6 801.566 117V87.08C801.566 78.76 797.246 73.8 789.246 73.8C782.366 73.8 777.726 78.44 777.726 86.12V114.12C777.566 121.48 778.526 124.2 782.366 126.76C785.886 129 787.006 131.08 787.006 133.64C787.006 137.48 784.766 141 779.326 141H751.006C744.446 141 741.406 138.28 741.406 133.48C741.406 131.08 742.366 129.16 745.406 126.6C748.286 124.52 749.246 122.44 749.246 117V86.44C749.246 77.8 744.606 72.68 737.566 72.68C730.046 72.68 725.406 77.64 725.406 85.32V115.24C725.406 122.12 726.366 124.84 730.206 127.24C733.726 129.32 734.846 131.4 734.846 133.96C734.846 137.64 732.606 141 727.166 141H695.486ZM853.418 45.48C848.938 45.48 846.058 42.76 846.058 37.8C846.058 28.52 853.578 21 863.498 21C873.418 21 881.258 28.52 881.258 37.8C881.258 42.92 878.378 45.48 873.738 45.48H853.418ZM843.018 59.56C843.018 55.88 845.258 52.68 850.538 52.68L852.778 52.84H872.138C878.218 52.84 880.618 55.56 880.618 62.92V115.56C880.618 122.44 881.578 125.16 885.418 127.4C888.938 129.64 890.058 131.56 890.058 134.12C890.058 137.8 887.818 141 882.378 141H850.698C845.418 141 843.338 137.8 843.338 134.12C843.338 131.56 844.458 129.64 847.818 127.56C851.498 125.16 852.458 122.6 852.458 115.72V78.12C852.458 71.24 851.178 68.52 847.018 66.12C843.978 64.04 843.018 61.96 843.018 59.56ZM901.837 141C896.557 141 894.317 137.8 894.317 134.12C894.317 131.56 895.437 129.64 898.797 127.56C902.637 125.16 903.437 122.6 903.437 115.72V47.56C903.437 40.84 902.317 37.96 897.997 35.56C894.957 33.64 893.997 31.56 893.997 29C894.157 25.48 896.237 22.12 901.517 22.28H924.397C929.037 22.28 931.917 24.52 931.917 30.6V115.56C931.757 122.44 932.717 125.16 936.557 127.4C940.077 129.64 941.197 131.56 941.197 134.12C941.197 137.8 938.957 141 933.517 141H901.837ZM954.677 170.12C950.837 170.12 947.957 167.08 947.957 164.2C947.957 161.48 949.717 159.72 951.157 158.44L968.437 143.88C971.317 141.48 971.477 139.24 969.717 135.88C960.277 115.88 951.477 95.08 943.637 73.96C942.197 70.28 940.917 68.52 938.517 66.28C936.117 64.52 934.997 62.28 934.997 59.72C934.997 55.72 937.877 52.84 942.997 52.84H974.037C980.117 52.84 982.677 54.92 982.677 59.56C982.677 62.44 981.237 64.04 977.717 65.96C972.117 69.64 973.397 72.2 975.157 77.96C978.197 87.88 981.877 97.8 987.317 109.32C988.917 112.52 990.357 112.52 991.637 109.32C996.437 97.8 1000.12 87.56 1002.68 77.96C1004.12 73 1004.12 70.28 999.957 66.92C998.037 65.16 995.637 62.76 995.637 59.4C995.637 55.56 998.037 52.84 1002.2 52.84H1024.12C1028.76 52.84 1031.32 55.88 1031.32 59.24C1031.32 61.64 1030.52 63.72 1027.96 65.96C1025.72 68.04 1023.96 70.6 1021.88 77.32C1015.96 96.2 1009.24 114.28 1002.04 131.88C996.597 144.68 991.477 156.36 984.437 165.8C982.357 168.84 979.637 170.12 975.957 170.12H954.677ZM156.794 295.8C153.754 295.8 152.474 294.04 151.034 290.04C143.354 266.52 135.034 230.52 131.674 196.92C131.354 192.12 130.234 190.04 126.714 188.28C123.514 186.68 122.714 185.08 123.194 182.84C123.514 180.12 125.594 179 128.314 179H157.754C161.274 179 162.394 181.08 162.074 183.8C161.594 186.2 159.354 187.64 154.554 187.96C148.474 188.44 147.034 190.04 147.354 194.52C149.114 218.68 156.154 254.2 163.514 275.48C164.154 277.4 165.434 277.24 166.554 275.64C180.794 256.44 198.554 222.36 207.834 196.12C209.594 191 208.794 189.24 201.274 187.64C198.074 186.68 196.954 185.24 197.274 182.84C197.754 180.12 199.674 179 202.394 179H229.594C232.154 179 233.434 180.92 232.954 183.48C232.634 185.56 231.514 187 228.314 188.12C224.474 189.08 222.394 190.68 220.634 195.16C206.714 230.84 187.034 268.76 169.754 291.64C167.354 295 166.074 295.8 163.354 295.8C162.714 295.8 160.794 295.64 159.514 295.64C158.554 295.64 157.434 295.8 156.794 295.8ZM235.702 197.56C233.142 197.56 232.022 196.12 232.502 193.24C233.782 186.52 239.702 181.24 245.942 181.24C253.302 181.24 257.782 186.68 256.662 193.88C256.022 196.76 254.582 197.56 252.022 197.56H235.702ZM215.062 290.84C215.542 288.6 217.142 287.16 220.822 286.36C225.782 285.08 226.902 282.84 227.702 277.56L236.822 226.04C237.782 221.4 237.142 219.96 231.702 218.2C228.342 216.92 227.382 215.48 227.702 213.08C228.022 210.52 230.102 209.4 233.302 209.56L241.782 209.88H248.342C252.662 209.88 254.102 212.12 253.302 216.28L242.102 279.32C241.142 283.8 241.302 285.08 246.742 286.36C250.102 287.48 251.062 288.76 250.902 291.16C250.742 293.72 248.662 295 245.622 295H225.142L219.862 295.32C216.502 295.48 214.582 293.56 215.062 290.84ZM256.997 283.16C253.317 278.68 254.277 274.84 257.957 271C259.077 269.56 260.517 268.44 261.957 268.6C263.397 268.76 264.357 269.88 266.117 272.28C271.557 282.2 281.957 288.44 293.317 288.44C302.277 288.44 309.477 283.64 310.757 276.76C312.197 268.44 307.237 261.72 290.437 257.24C268.197 251 261.957 242.84 264.197 229.4C266.437 216.6 280.037 207.32 296.837 207.32C309.157 207.32 322.597 213.4 328.197 222.04C331.397 226.04 330.437 228.92 327.077 232.76C325.637 234.2 324.517 234.84 323.397 234.68C322.277 234.68 320.997 233.4 319.557 231.48C314.437 222.2 305.957 216.12 295.557 216.12C287.077 216.12 279.877 221.4 278.597 228.28C277.477 235.64 282.437 240.76 299.557 245.4C320.837 251.48 328.037 260.28 325.317 275.8C322.917 288.76 309.637 297.4 292.517 297.4C277.797 297.4 263.877 291.8 256.997 283.16ZM345.589 197.56C343.029 197.56 341.909 196.12 342.389 193.24C343.669 186.52 349.589 181.24 355.829 181.24C363.189 181.24 367.669 186.68 366.549 193.88C365.909 196.76 364.469 197.56 361.909 197.56H345.589ZM324.949 290.84C325.429 288.6 327.029 287.16 330.709 286.36C335.669 285.08 336.789 282.84 337.589 277.56L346.709 226.04C347.669 221.4 347.029 219.96 341.589 218.2C338.229 216.92 337.269 215.48 337.589 213.08C337.909 210.52 339.989 209.4 343.189 209.56L351.669 209.88H358.229C362.549 209.88 363.989 212.12 363.189 216.28L351.989 279.32C351.029 283.8 351.189 285.08 356.629 286.36C359.989 287.48 360.949 288.76 360.789 291.16C360.629 293.72 358.549 295 355.509 295H335.029L329.749 295.32C326.389 295.48 324.469 293.56 324.949 290.84ZM385.437 295C373.917 295 370.717 288.28 372.797 276.92C373.757 271 376.317 263.16 379.037 253.08C382.557 240.76 384.637 232.44 386.077 224.44C386.877 219.16 384.797 218.2 375.197 218.68C372.317 218.68 370.877 217.08 371.517 214.2C371.837 211.96 373.277 210.68 376.157 209.88C381.117 208.6 384.797 207 387.677 204.6C391.677 201.24 393.917 198.04 396.637 192.92C397.917 190.68 399.517 189.4 401.437 189.4C403.517 189.4 404.477 191 403.997 193.88L401.437 207.16C400.957 209.08 401.277 209.88 403.357 209.88H416.957C419.197 209.88 419.837 211.48 419.037 215.64C418.557 218.2 417.437 219 415.357 219L402.557 219.16C399.997 219.16 399.197 219 398.557 222.2C394.877 242.84 390.397 263.32 388.317 275.16C387.037 282.2 389.277 283.32 401.757 285.56C406.557 286.68 408.157 288.28 407.517 291C407.197 293.56 405.597 295 402.237 295H385.437ZM434.071 197.56C431.511 197.56 430.391 196.12 430.871 193.24C432.151 186.52 438.071 181.24 444.311 181.24C451.671 181.24 456.151 186.68 455.031 193.88C454.391 196.76 452.951 197.56 450.391 197.56H434.071ZM413.431 290.84C413.911 288.6 415.511 287.16 419.191 286.36C424.151 285.08 425.271 282.84 426.071 277.56L435.191 226.04C436.151 221.4 435.511 219.96 430.071 218.2C426.711 216.92 425.751 215.48 426.071 213.08C426.391 210.52 428.471 209.4 431.671 209.56L440.151 209.88H446.711C451.031 209.88 452.471 212.12 451.671 216.28L440.471 279.32C439.511 283.8 439.671 285.08 445.111 286.36C448.471 287.48 449.431 288.76 449.271 291.16C449.111 293.72 447.031 295 443.991 295H423.511L418.231 295.32C414.871 295.48 412.951 293.56 413.431 290.84ZM522.558 296.6C512.158 296.6 507.678 290.04 511.358 279.96L525.598 243.64C531.518 228.6 523.678 218.52 511.838 218.52C499.678 218.68 485.758 227 483.838 237.72L475.038 286.68C473.758 294.2 471.358 296.44 465.438 296.44H462.558C458.718 296.44 456.958 293.88 457.758 290.52L471.678 227.48C473.118 222.2 473.278 219.8 467.358 218.04C464.318 216.92 463.038 215.48 463.358 213.4C463.838 210.84 466.398 209.4 469.758 209.56L477.758 209.88H482.558C486.238 209.88 487.198 212.44 486.238 218.2C486.078 220.44 487.358 220.92 489.438 218.84C497.118 211.8 507.678 207.64 517.438 207.64C535.998 207.64 549.118 222.84 540.638 243.8L525.758 280.28C524.158 284.12 525.758 284.92 528.318 284.92C531.038 284.92 533.918 284.12 538.398 282.36C540.638 281.56 541.918 281.4 543.038 283.48C544.798 286.2 544.158 289.24 540.318 291.48C535.038 294.36 526.878 296.6 522.558 296.6ZM558.879 221.24C555.679 223.32 553.439 222.68 551.999 220.44C550.879 218.68 551.519 217.24 553.599 215.96C561.119 210.68 565.599 204.92 566.399 200.76C566.719 198.84 565.919 198.04 564.159 197.72C559.359 196.44 556.959 193.08 557.759 187.96C559.039 181.4 564.159 176.92 570.079 177.56C577.279 178.2 580.959 184.76 579.199 194.2C577.439 204.44 569.439 215.32 558.879 221.24ZM648.022 297.4C614.582 297.4 588.022 267.8 595.062 229.56C600.182 201.24 627.222 176.6 657.782 176.6C676.822 176.6 695.702 186.84 705.622 202.52C710.102 208.28 708.982 213.72 702.102 218.52C698.422 221.24 696.022 220.6 694.422 216.76C685.622 197.4 673.302 187 655.862 187C634.742 187 615.862 204.12 611.702 227.96C606.742 257.08 623.222 284.6 652.022 284.6C666.422 284.6 680.182 278.04 692.182 267C694.262 265.08 696.022 265.24 698.102 267.8C700.022 270.04 699.222 272.44 696.982 275.16C685.622 288.12 666.422 297.4 648.022 297.4ZM706.393 295L701.113 295.32C697.753 295.48 695.833 293.56 696.313 291C696.793 288.76 698.393 287.48 702.233 286.52C707.193 285.4 708.153 283.16 709.113 278.04L723.833 194.36C724.793 189.72 724.153 188.28 718.713 186.52C715.353 185.08 714.233 183.8 714.553 181.24C715.033 178.68 717.113 177.56 720.313 177.72L729.113 178.04H735.353C739.353 178.04 740.953 180.28 740.313 184.28L723.353 278.52C722.393 283.16 722.553 284.6 728.313 286.04C731.833 287.16 732.953 288.44 732.793 291C732.473 293.72 730.393 295 727.193 295H706.393ZM767.436 297.24C750.476 297.24 740.556 286.52 744.236 269.08L752.556 227.48C753.836 222.2 753.356 219.8 747.596 217.72C744.556 216.44 743.276 215.16 743.916 213.08C744.396 210.52 746.796 209.08 750.156 209.4L758.316 209.88H764.716C768.716 209.88 770.316 212.28 769.516 216.28L758.796 268.92C756.716 278.84 762.796 286.2 772.396 286.36C785.196 286.36 798.956 276.44 800.876 265.4L807.756 227.8C808.876 222.36 808.396 219.96 802.316 217.88C799.276 216.76 797.996 215.32 798.316 213.24C798.796 210.68 801.356 209.24 804.876 209.4L813.196 209.88H819.436C823.756 209.88 825.356 212.12 824.556 216.92L813.196 275.96C812.396 281.4 812.876 282.84 820.716 281.24C824.396 280.92 826.316 282.2 826.156 284.92C825.996 287.64 823.756 289.24 819.596 290.68L809.676 294.04L803.436 295.64C798.796 296.92 797.516 294.2 797.996 286.84C798.156 284.12 796.396 284.44 794.796 286.2C787.436 293.08 776.876 297.24 767.436 297.24ZM873.591 297.08C859.031 296.92 840.951 291 831.351 284.28C829.111 282.52 827.831 280.6 828.311 277.88C828.631 275.32 830.871 274.52 834.711 274.84C837.911 275 839.671 273.4 840.791 267.32L853.271 195C854.231 190.04 853.431 188.6 847.511 186.84C843.991 185.4 842.871 183.96 843.191 181.4C843.511 178.84 845.911 177.56 849.271 177.72L858.551 178.04H865.271C869.271 178.04 870.551 180.44 869.911 184.28L864.471 216.12C864.151 218.2 865.431 218.84 867.191 217.08C873.591 211.16 883.031 207.32 892.311 207.32C913.591 207.8 928.951 225.88 923.511 255.8C918.871 281.24 899.031 297.56 873.591 297.08ZM854.231 272.28C853.111 279 854.711 282.36 860.791 284.76C863.831 286.04 868.951 287.32 875.031 287.32C891.351 287.32 904.791 275.32 908.151 257.4C911.991 237.08 903.031 218.52 886.551 218.52C873.751 218.52 861.911 228.6 859.671 241.24L854.231 272.28Z" fill="#FB5B12"/>
</svg>
