<svg width="1020" height="288" viewBox="0 0 1020 288" fill="none" xmlns="http://www.w3.org/2000/svg">
<path d="M10.8331 136C5.23311 136 2.99311 132.64 2.99311 128.8C2.99311 126.24 3.95311 124 7.31311 122.24C12.2731 119.52 13.3931 116.8 13.2331 109.76V44.96C13.3931 38.08 12.2731 35.2 7.31311 32.64C3.95311 30.72 2.99311 28.64 2.99311 25.92C2.99311 22.08 5.23311 18.72 10.6731 18.72H69.2331C94.3531 18.72 107.313 28 107.313 46.72C107.313 54.88 103.313 61.28 91.9531 68.8C89.8731 70.24 89.8731 72 91.7931 73.12C106.513 80.48 112.753 90.24 112.753 103.52C112.753 123.36 97.3931 136 77.8731 136H10.8331ZM44.2731 104.16C44.2731 115.68 49.7131 119.68 60.7531 119.68C72.5931 119.68 80.4331 112 80.4331 102.56C80.4331 95.52 77.5531 90.56 72.4331 86.88C69.0731 84.48 65.2331 83.04 61.2331 83.04C57.2331 83.04 52.5931 84.48 47.6331 86.4C45.3931 87.52 44.2731 89.28 44.2731 91.68V104.16ZM44.2731 66.56C44.2731 69.28 45.8731 70.08 48.1131 69.12C53.2331 67.2 61.0731 64.8 65.0731 62.88C71.4731 60.16 74.8331 55.36 74.8331 49.6C74.8331 40.96 68.9131 35.84 57.5531 35.84H49.0731C45.7131 35.84 44.2731 37.28 44.2731 40.32V66.56ZM148.498 138.72C131.538 138.56 119.698 130.56 119.698 111.04V73.12C119.698 66.24 118.578 63.52 114.258 61.12C111.218 59.04 110.258 56.96 110.258 54.56C110.258 50.88 112.498 47.68 117.778 47.68L120.018 47.84H139.858C145.778 47.84 148.498 50.4 148.338 56.64L148.018 102.24C147.858 110.4 152.018 115.04 159.858 115.04C168.178 115.04 173.618 109.76 173.618 102.4V73.12C173.618 66.24 172.338 63.52 167.538 60.96C164.178 59.04 163.058 56.96 163.218 54.56C163.218 50.88 165.618 47.68 171.538 47.68L173.938 47.84H193.618C200.178 47.84 202.098 50.4 202.098 57.44L201.938 110.72C201.938 117.6 202.738 120.16 206.578 122.56C209.938 124.64 211.058 126.56 211.058 129.12C211.058 132.8 208.818 136 203.538 136H181.778C177.138 136 175.538 134.08 174.418 129.28C173.778 126.72 171.218 125.92 169.458 128.48C164.978 135.04 156.978 138.88 148.498 138.72ZM219.798 136C214.518 136 212.438 132.8 212.438 129.12C212.438 126.56 213.558 124.64 216.918 122.56C220.598 120.16 221.558 117.6 221.558 110.72V73.12C221.558 66.24 220.278 63.52 216.118 61.12C213.078 59.04 212.118 56.96 212.118 54.56C212.118 50.88 214.358 47.68 219.638 47.68L221.878 47.84H242.038C245.718 47.84 247.798 49.44 248.918 52.96L249.718 55.84C250.198 57.6 251.958 57.76 253.078 56C257.878 48.8 262.358 46.4 268.118 46.4C274.518 46.4 278.358 50.08 278.358 59.04C278.358 68.96 273.718 82.08 267.478 82.08C265.718 82.08 263.958 81.12 262.358 79.36C260.278 76.96 258.678 76.16 256.118 76.16C252.438 76.16 249.878 78.72 249.878 84V110.4C249.718 117.28 250.838 120 255.158 122.4C258.998 124.48 260.278 126.56 260.278 128.96C260.278 132.64 257.718 136 251.798 136H219.798ZM322.551 138.56C298.551 138.56 276.311 119.52 276.311 90.88C276.311 64.48 298.071 45.12 323.671 45.12C336.151 45.12 349.111 50.24 356.471 57.12C364.631 64.32 362.551 69.12 354.711 76.8C349.431 81.76 345.911 83.84 342.871 83.84C340.471 83.84 338.391 82.24 336.471 78.72C331.191 69.6 326.231 63.52 318.871 63.52C311.351 63.52 305.911 71.04 305.911 81.6C305.911 100 317.271 115.52 332.151 115.52C339.671 115.52 345.751 112.32 351.831 107.84C354.871 105.44 357.271 105.92 360.471 109.6C363.191 112.8 363.351 115.84 359.831 120.48C351.671 131.04 338.551 138.56 322.551 138.56ZM368.016 136C362.896 136 360.656 132.8 360.656 129.12C360.656 126.56 361.776 124.64 365.136 122.56C368.816 120.16 369.776 117.6 369.776 110.72V42.72C369.776 35.84 368.496 33.12 364.336 30.56C361.296 28.64 360.336 26.56 360.336 24.16C360.336 20.48 362.576 17.28 367.856 17.28H390.896C395.376 17.28 398.096 19.52 398.096 24.32L397.776 54.88C397.776 57.6 400.016 58.4 401.776 55.68C405.936 50.24 413.296 45.76 422.256 45.76C436.816 45.76 445.776 53.6 448.496 71.2L454.256 108.64C455.216 114.72 456.976 118.88 460.336 121.6C463.376 123.84 464.816 126.24 464.816 129.44C464.816 133.12 462.736 136 457.936 136H444.016C432.656 136 427.376 131.68 425.936 119.84L421.616 82.24C420.656 73.28 416.016 69.28 409.136 69.28C402.736 69.28 398.096 73.12 398.096 78.72V110.24C398.096 117.12 399.056 119.84 403.216 122.24C406.896 124.32 408.176 126.4 408.176 128.96C408.176 132.64 405.776 136 400.016 136H368.016ZM501.077 136C495.637 136 493.397 132.64 493.397 128.8C493.397 126.24 494.357 124 497.717 122.24C502.677 119.52 503.637 116.64 503.637 109.76V44.96C503.637 38.08 502.357 35.2 497.557 32.48C494.197 30.56 493.237 28.48 493.237 25.76C493.237 21.92 495.637 18.72 500.917 18.72H574.677C579.957 18.72 582.677 20.48 584.277 24.96C585.877 30.4 589.877 42.72 589.877 48.48C589.877 52.48 587.797 54.4 584.757 54.4C579.797 54.4 571.317 47.68 566.837 44.16C560.277 38.88 553.877 35.36 546.357 35.36C537.877 35.36 534.357 40.48 534.357 52V59.2C534.357 65.12 535.637 66.4 540.757 66.4L568.437 66.56C572.117 66.56 574.677 68.32 574.677 72.16C574.677 76.64 571.637 83.36 568.277 87.04C566.677 88.96 564.437 90.08 561.877 90.08C556.117 90.08 546.837 84.64 541.077 84.64C537.077 84.64 534.517 87.52 534.517 93.28V108.64C534.357 116 536.117 118.88 542.517 121.76C546.837 123.84 548.117 126.08 547.957 128.8C547.957 132.8 544.917 136.16 537.717 136H501.077ZM616.534 137.92C601.334 137.92 586.294 127.2 586.294 107.52C586.294 87.84 604.214 76.32 620.374 76.32C627.254 76.32 632.534 77.6 634.934 77.6C636.534 77.6 637.334 76.8 637.334 75.04C637.334 68.8 632.534 62.72 624.374 62.72C616.694 62.72 608.054 68.8 601.334 73.12C596.534 76 593.654 74.24 591.574 69.44C587.254 58.72 587.734 53.6 594.134 50.72C599.574 48.16 612.694 46.24 623.094 46.24C649.654 46.24 664.054 54.72 666.934 77.76L670.294 105.92C671.574 114.4 673.814 118.88 677.494 122.24C679.734 124.32 680.694 126.24 680.694 128.8C680.694 133.76 674.134 137.76 665.814 137.44C658.774 137.44 653.014 135.52 647.734 130.72C645.494 128.8 644.214 128.96 641.974 130.56C634.774 135.52 626.134 137.92 616.534 137.92ZM615.574 104.16C615.574 111.68 620.534 120 629.654 120C638.134 120 643.414 115.2 642.294 108.16L640.854 98.56C639.894 93.28 637.654 90.88 629.654 90.88C620.054 90.88 615.574 97.76 615.574 104.16ZM689.086 136C683.806 136 681.566 132.8 681.566 129.12C681.566 126.56 682.686 124.64 686.046 122.56C689.886 120.16 690.686 117.6 690.686 110.72V72.96C690.846 66.24 689.566 63.52 685.246 60.96C682.206 59.04 681.246 57.12 681.406 54.56C681.406 50.88 683.486 47.68 688.766 47.68L691.006 47.84H710.846C715.166 47.84 716.446 50.08 718.046 55.52C718.366 57.44 720.126 58.08 721.726 56.16C726.526 49.76 734.846 45.76 744.126 45.76C754.366 45.76 761.406 49.76 766.686 57.12C767.326 58.08 767.806 59.2 768.926 59.2C770.046 59.2 770.526 58.24 771.326 56.96C777.406 49.6 784.766 45.92 794.846 45.92C812.926 45.92 823.486 57.44 823.486 77.76V110.72C823.486 117.6 824.446 120.16 828.126 122.56C831.486 124.64 832.606 126.56 832.606 129.12C832.606 132.8 830.366 136 825.246 136H796.766C790.366 136 787.166 133.28 787.166 128.48C787.166 126.08 788.446 124.16 791.006 121.92C794.046 119.52 795.166 117.6 795.166 112V82.08C795.166 73.76 790.846 68.8 782.846 68.8C775.966 68.8 771.326 73.44 771.326 81.12V109.12C771.166 116.48 772.126 119.2 775.966 121.76C779.486 124 780.606 126.08 780.606 128.64C780.606 132.48 778.366 136 772.926 136H744.606C738.046 136 735.006 133.28 735.006 128.48C735.006 126.08 735.966 124.16 739.006 121.6C741.886 119.52 742.846 117.44 742.846 112V81.44C742.846 72.8 738.206 67.68 731.166 67.68C723.646 67.68 719.006 72.64 719.006 80.32V110.24C719.006 117.12 719.966 119.84 723.806 122.24C727.326 124.32 728.446 126.4 728.446 128.96C728.446 132.64 726.206 136 720.766 136H689.086ZM843.818 40.48C839.338 40.48 836.458 37.76 836.458 32.8C836.458 23.52 843.978 16 853.898 16C863.818 16 871.658 23.52 871.658 32.8C871.658 37.92 868.778 40.48 864.138 40.48H843.818ZM833.418 54.56C833.418 50.88 835.658 47.68 840.938 47.68L843.178 47.84H862.538C868.618 47.84 871.018 50.56 871.018 57.92V110.56C871.018 117.44 871.978 120.16 875.818 122.4C879.338 124.64 880.458 126.56 880.458 129.12C880.458 132.8 878.218 136 872.778 136H841.098C835.818 136 833.738 132.8 833.738 129.12C833.738 126.56 834.858 124.64 838.218 122.56C841.898 120.16 842.858 117.6 842.858 110.72V73.12C842.858 66.24 841.578 63.52 837.418 61.12C834.378 59.04 833.418 56.96 833.418 54.56ZM889.037 136C883.757 136 881.517 132.8 881.517 129.12C881.517 126.56 882.637 124.64 885.997 122.56C889.837 120.16 890.637 117.6 890.637 110.72V42.56C890.637 35.84 889.517 32.96 885.197 30.56C882.157 28.64 881.197 26.56 881.197 24C881.357 20.48 883.437 17.12 888.717 17.28H911.597C916.237 17.28 919.117 19.52 919.117 25.6V110.56C918.957 117.44 919.917 120.16 923.757 122.4C927.277 124.64 928.397 126.56 928.397 129.12C928.397 132.8 926.157 136 920.717 136H889.037ZM942.677 165.12C938.837 165.12 935.957 162.08 935.957 159.2C935.957 156.48 937.717 154.72 939.157 153.44L956.437 138.88C959.317 136.48 959.477 134.24 957.717 130.88C948.277 110.88 939.477 90.08 931.637 68.96C930.197 65.28 928.917 63.52 926.517 61.28C924.117 59.52 922.997 57.28 922.997 54.72C922.997 50.72 925.877 47.84 930.997 47.84H962.037C968.117 47.84 970.677 49.92 970.677 54.56C970.677 57.44 969.237 59.04 965.717 60.96C960.117 64.64 961.397 67.2 963.157 72.96C966.197 82.88 969.877 92.8 975.317 104.32C976.917 107.52 978.357 107.52 979.637 104.32C984.437 92.8 988.117 82.56 990.677 72.96C992.117 68 992.117 65.28 987.957 61.92C986.037 60.16 983.637 57.76 983.637 54.4C983.637 50.56 986.037 47.84 990.197 47.84H1012.12C1016.76 47.84 1019.32 50.88 1019.32 54.24C1019.32 56.64 1018.52 58.72 1015.96 60.96C1013.72 63.04 1011.96 65.6 1009.88 72.32C1003.96 91.2 997.237 109.28 990.037 126.88C984.597 139.68 979.477 151.36 972.437 160.8C970.357 163.84 967.637 165.12 963.957 165.12H942.677ZM147.594 280.8C144.554 280.8 143.274 279.04 141.834 275.04C134.154 251.52 125.834 215.52 122.474 181.92C122.154 177.12 121.034 175.04 117.514 173.28C114.314 171.68 113.514 170.08 113.994 167.84C114.314 165.12 116.394 164 119.114 164H148.554C152.074 164 153.194 166.08 152.874 168.8C152.394 171.2 150.154 172.64 145.354 172.96C139.274 173.44 137.834 175.04 138.154 179.52C139.914 203.68 146.954 239.2 154.314 260.48C154.954 262.4 156.234 262.24 157.354 260.64C171.594 241.44 189.354 207.36 198.634 181.12C200.394 176 199.594 174.24 192.074 172.64C188.874 171.68 187.754 170.24 188.074 167.84C188.554 165.12 190.474 164 193.194 164H220.394C222.954 164 224.234 165.92 223.754 168.48C223.434 170.56 222.314 172 219.114 173.12C215.274 174.08 213.194 175.68 211.434 180.16C197.514 215.84 177.834 253.76 160.554 276.64C158.154 280 156.874 280.8 154.154 280.8C153.514 280.8 151.594 280.64 150.314 280.64C149.354 280.64 148.234 280.8 147.594 280.8ZM228.102 182.56C225.542 182.56 224.422 181.12 224.902 178.24C226.182 171.52 232.102 166.24 238.342 166.24C245.702 166.24 250.182 171.68 249.062 178.88C248.422 181.76 246.982 182.56 244.422 182.56H228.102ZM207.462 275.84C207.942 273.6 209.542 272.16 213.222 271.36C218.182 270.08 219.302 267.84 220.102 262.56L229.222 211.04C230.182 206.4 229.542 204.96 224.102 203.2C220.742 201.92 219.782 200.48 220.102 198.08C220.422 195.52 222.502 194.4 225.702 194.56L234.182 194.88H240.742C245.062 194.88 246.502 197.12 245.702 201.28L234.502 264.32C233.542 268.8 233.702 270.08 239.142 271.36C242.502 272.48 243.462 273.76 243.302 276.16C243.142 278.72 241.062 280 238.022 280H217.542L212.262 280.32C208.902 280.48 206.982 278.56 207.462 275.84ZM250.197 268.16C246.517 263.68 247.477 259.84 251.157 256C252.277 254.56 253.717 253.44 255.157 253.6C256.597 253.76 257.557 254.88 259.317 257.28C264.757 267.2 275.157 273.44 286.517 273.44C295.477 273.44 302.677 268.64 303.957 261.76C305.397 253.44 300.437 246.72 283.637 242.24C261.397 236 255.157 227.84 257.397 214.4C259.637 201.6 273.237 192.32 290.037 192.32C302.357 192.32 315.797 198.4 321.397 207.04C324.597 211.04 323.637 213.92 320.277 217.76C318.837 219.2 317.717 219.84 316.597 219.68C315.477 219.68 314.197 218.4 312.757 216.48C307.637 207.2 299.157 201.12 288.757 201.12C280.277 201.12 273.077 206.4 271.797 213.28C270.677 220.64 275.637 225.76 292.757 230.4C314.037 236.48 321.237 245.28 318.517 260.8C316.117 273.76 302.837 282.4 285.717 282.4C270.997 282.4 257.077 276.8 250.197 268.16ZM339.589 182.56C337.029 182.56 335.909 181.12 336.389 178.24C337.669 171.52 343.589 166.24 349.829 166.24C357.189 166.24 361.669 171.68 360.549 178.88C359.909 181.76 358.469 182.56 355.909 182.56H339.589ZM318.949 275.84C319.429 273.6 321.029 272.16 324.709 271.36C329.669 270.08 330.789 267.84 331.589 262.56L340.709 211.04C341.669 206.4 341.029 204.96 335.589 203.2C332.229 201.92 331.269 200.48 331.589 198.08C331.909 195.52 333.989 194.4 337.189 194.56L345.669 194.88H352.229C356.549 194.88 357.989 197.12 357.189 201.28L345.989 264.32C345.029 268.8 345.189 270.08 350.629 271.36C353.989 272.48 354.949 273.76 354.789 276.16C354.629 278.72 352.549 280 349.509 280H329.029L323.749 280.32C320.389 280.48 318.469 278.56 318.949 275.84ZM380.237 280C368.717 280 365.517 273.28 367.597 261.92C368.557 256 371.117 248.16 373.837 238.08C377.357 225.76 379.437 217.44 380.877 209.44C381.677 204.16 379.597 203.2 369.997 203.68C367.117 203.68 365.677 202.08 366.317 199.2C366.637 196.96 368.077 195.68 370.957 194.88C375.917 193.6 379.597 192 382.477 189.6C386.477 186.24 388.717 183.04 391.437 177.92C392.717 175.68 394.317 174.4 396.237 174.4C398.317 174.4 399.277 176 398.797 178.88L396.237 192.16C395.757 194.08 396.077 194.88 398.157 194.88H411.757C413.997 194.88 414.637 196.48 413.837 200.64C413.357 203.2 412.237 204 410.157 204L397.357 204.16C394.797 204.16 393.997 204 393.357 207.2C389.677 227.84 385.197 248.32 383.117 260.16C381.837 267.2 384.077 268.32 396.557 270.56C401.357 271.68 402.957 273.28 402.317 276C401.997 278.56 400.397 280 397.037 280H380.237ZM429.671 182.56C427.111 182.56 425.991 181.12 426.471 178.24C427.751 171.52 433.671 166.24 439.911 166.24C447.271 166.24 451.751 171.68 450.631 178.88C449.991 181.76 448.551 182.56 445.991 182.56H429.671ZM409.031 275.84C409.511 273.6 411.111 272.16 414.791 271.36C419.751 270.08 420.871 267.84 421.671 262.56L430.791 211.04C431.751 206.4 431.111 204.96 425.671 203.2C422.311 201.92 421.351 200.48 421.671 198.08C421.991 195.52 424.071 194.4 427.271 194.56L435.751 194.88H442.311C446.631 194.88 448.071 197.12 447.271 201.28L436.071 264.32C435.111 268.8 435.271 270.08 440.711 271.36C444.071 272.48 445.031 273.76 444.871 276.16C444.711 278.72 442.631 280 439.591 280H419.111L413.831 280.32C410.471 280.48 408.551 278.56 409.031 275.84ZM518.958 281.6C508.558 281.6 504.078 275.04 507.758 264.96L521.998 228.64C527.918 213.6 520.078 203.52 508.238 203.52C496.078 203.68 482.158 212 480.238 222.72L471.438 271.68C470.158 279.2 467.758 281.44 461.838 281.44H458.958C455.118 281.44 453.358 278.88 454.158 275.52L468.078 212.48C469.518 207.2 469.678 204.8 463.758 203.04C460.718 201.92 459.438 200.48 459.758 198.4C460.238 195.84 462.798 194.4 466.158 194.56L474.158 194.88H478.958C482.638 194.88 483.598 197.44 482.638 203.2C482.478 205.44 483.758 205.92 485.838 203.84C493.518 196.8 504.078 192.64 513.838 192.64C532.398 192.64 545.518 207.84 537.038 228.8L522.158 265.28C520.558 269.12 522.158 269.92 524.718 269.92C527.438 269.92 530.318 269.12 534.798 267.36C537.038 266.56 538.318 266.4 539.438 268.48C541.198 271.2 540.558 274.24 536.718 276.48C531.438 279.36 523.278 281.6 518.958 281.6ZM555.279 206.24C552.079 208.32 549.839 207.68 548.399 205.44C547.279 203.68 547.919 202.24 549.999 200.96C557.519 195.68 561.999 189.92 562.799 185.76C563.119 183.84 562.319 183.04 560.559 182.72C555.759 181.44 553.359 178.08 554.159 172.96C555.439 166.4 560.559 161.92 566.479 162.56C573.679 163.2 577.359 169.76 575.599 179.2C573.839 189.44 565.839 200.32 555.279 206.24ZM644.422 282.4C610.982 282.4 584.422 252.8 591.462 214.56C596.582 186.24 623.622 161.6 654.182 161.6C673.222 161.6 692.102 171.84 702.022 187.52C706.502 193.28 705.382 198.72 698.502 203.52C694.822 206.24 692.422 205.6 690.822 201.76C682.022 182.4 669.702 172 652.262 172C631.142 172 612.262 189.12 608.102 212.96C603.142 242.08 619.622 269.6 648.422 269.6C662.822 269.6 676.582 263.04 688.582 252C690.662 250.08 692.422 250.24 694.502 252.8C696.422 255.04 695.622 257.44 693.382 260.16C682.022 273.12 662.822 282.4 644.422 282.4ZM702.793 280L697.513 280.32C694.153 280.48 692.233 278.56 692.713 276C693.193 273.76 694.793 272.48 698.633 271.52C703.593 270.4 704.553 268.16 705.513 263.04L720.233 179.36C721.193 174.72 720.553 173.28 715.113 171.52C711.753 170.08 710.633 168.8 710.953 166.24C711.433 163.68 713.513 162.56 716.713 162.72L725.513 163.04H731.753C735.753 163.04 737.353 165.28 736.713 169.28L719.753 263.52C718.793 268.16 718.953 269.6 724.713 271.04C728.233 272.16 729.353 273.44 729.193 276C728.873 278.72 726.793 280 723.593 280H702.793ZM764.636 282.24C747.676 282.24 737.756 271.52 741.436 254.08L749.756 212.48C751.036 207.2 750.556 204.8 744.796 202.72C741.756 201.44 740.476 200.16 741.116 198.08C741.596 195.52 743.996 194.08 747.356 194.4L755.516 194.88H761.916C765.916 194.88 767.516 197.28 766.716 201.28L755.996 253.92C753.916 263.84 759.996 271.2 769.596 271.36C782.396 271.36 796.156 261.44 798.076 250.4L804.956 212.8C806.076 207.36 805.596 204.96 799.516 202.88C796.476 201.76 795.196 200.32 795.516 198.24C795.996 195.68 798.556 194.24 802.076 194.4L810.396 194.88H816.636C820.956 194.88 822.556 197.12 821.756 201.92L810.396 260.96C809.596 266.4 810.076 267.84 817.916 266.24C821.596 265.92 823.516 267.2 823.356 269.92C823.196 272.64 820.956 274.24 816.796 275.68L806.876 279.04L800.636 280.64C795.996 281.92 794.716 279.2 795.196 271.84C795.356 269.12 793.596 269.44 791.996 271.2C784.636 278.08 774.076 282.24 764.636 282.24ZM870.791 282.08C856.231 281.92 838.151 276 828.551 269.28C826.311 267.52 825.031 265.6 825.511 262.88C825.831 260.32 828.071 259.52 831.911 259.84C835.111 260 836.871 258.4 837.991 252.32L850.471 180C851.431 175.04 850.631 173.6 844.711 171.84C841.191 170.4 840.071 168.96 840.391 166.4C840.711 163.84 843.111 162.56 846.471 162.72L855.751 163.04H862.471C866.471 163.04 867.751 165.44 867.111 169.28L861.671 201.12C861.351 203.2 862.631 203.84 864.391 202.08C870.791 196.16 880.231 192.32 889.511 192.32C910.791 192.8 926.151 210.88 920.711 240.8C916.071 266.24 896.231 282.56 870.791 282.08ZM851.431 257.28C850.311 264 851.911 267.36 857.991 269.76C861.031 271.04 866.151 272.32 872.231 272.32C888.551 272.32 901.991 260.32 905.351 242.4C909.191 222.08 900.231 203.52 883.751 203.52C870.951 203.52 859.111 213.6 856.871 226.24L851.431 257.28Z" fill="#E4FAD3"/>
</svg>
