<svg width="1020" height="288" viewBox="0 0 1020 288" fill="none" xmlns="http://www.w3.org/2000/svg">
<path d="M10.8331 136C5.23311 136 2.99311 132.64 2.99311 128.8C2.99311 126.24 3.95311 124 7.31311 122.24C12.2731 119.52 13.3931 116.8 13.2331 109.76V44.96C13.3931 38.08 12.2731 35.2 7.31311 32.64C3.95311 30.72 2.99311 28.64 2.99311 25.92C2.99311 22.08 5.23311 18.72 10.6731 18.72H69.2331C94.3531 18.72 107.313 28 107.313 46.72C107.313 54.88 103.313 61.28 91.9531 68.8C89.8731 70.24 89.8731 72 91.7931 73.12C106.513 80.48 112.753 90.24 112.753 103.52C112.753 123.36 97.3931 136 77.8731 136H10.8331ZM44.2731 104.16C44.2731 115.68 49.7131 119.68 60.7531 119.68C72.5931 119.68 80.4331 112 80.4331 102.56C80.4331 95.52 77.5531 90.56 72.4331 86.88C69.0731 84.48 65.2331 83.04 61.2331 83.04C57.2331 83.04 52.5931 84.48 47.6331 86.4C45.3931 87.52 44.2731 89.28 44.2731 91.68V104.16ZM44.2731 66.56C44.2731 69.28 45.8731 70.08 48.1131 69.12C53.2331 67.2 61.0731 64.8 65.0731 62.88C71.4731 60.16 74.8331 55.36 74.8331 49.6C74.8331 40.96 68.9131 35.84 57.5531 35.84H49.0731C45.7131 35.84 44.2731 37.28 44.2731 40.32V66.56ZM148.498 138.72C131.538 138.56 119.698 130.56 119.698 111.04V73.12C119.698 66.24 118.578 63.52 114.258 61.12C111.218 59.04 110.258 56.96 110.258 54.56C110.258 50.88 112.498 47.68 117.778 47.68L120.018 47.84H139.858C145.778 47.84 148.498 50.4 148.338 56.64L148.018 102.24C147.858 110.4 152.018 115.04 159.858 115.04C168.178 115.04 173.618 109.76 173.618 102.4V73.12C173.618 66.24 172.338 63.52 167.538 60.96C164.178 59.04 163.058 56.96 163.218 54.56C163.218 50.88 165.618 47.68 171.538 47.68L173.938 47.84H193.618C200.178 47.84 202.098 50.4 202.098 57.44L201.938 110.72C201.938 117.6 202.738 120.16 206.578 122.56C209.938 124.64 211.058 126.56 211.058 129.12C211.058 132.8 208.818 136 203.538 136H181.778C177.138 136 175.538 134.08 174.418 129.28C173.778 126.72 171.218 125.92 169.458 128.48C164.978 135.04 156.978 138.88 148.498 138.72ZM219.798 136C214.518 136 212.438 132.8 212.438 129.12C212.438 126.56 213.558 124.64 216.918 122.56C220.598 120.16 221.558 117.6 221.558 110.72V73.12C221.558 66.24 220.278 63.52 216.118 61.12C213.078 59.04 212.118 56.96 212.118 54.56C212.118 50.88 214.358 47.68 219.638 47.68L221.878 47.84H242.038C245.718 47.84 247.798 49.44 248.918 52.96L249.718 55.84C250.198 57.6 251.958 57.76 253.078 56C257.878 48.8 262.358 46.4 268.118 46.4C274.518 46.4 278.358 50.08 278.358 59.04C278.358 68.96 273.718 82.08 267.478 82.08C265.718 82.08 263.958 81.12 262.358 79.36C260.278 76.96 258.678 76.16 256.118 76.16C252.438 76.16 249.878 78.72 249.878 84V110.4C249.718 117.28 250.838 120 255.158 122.4C258.998 124.48 260.278 126.56 260.278 128.96C260.278 132.64 257.718 136 251.798 136H219.798ZM322.551 138.56C298.551 138.56 276.311 119.52 276.311 90.88C276.311 64.48 298.071 45.12 323.671 45.12C336.151 45.12 349.111 50.24 356.471 57.12C364.631 64.32 362.551 69.12 354.711 76.8C349.431 81.76 345.911 83.84 342.871 83.84C340.471 83.84 338.391 82.24 336.471 78.72C331.191 69.6 326.231 63.52 318.871 63.52C311.351 63.52 305.911 71.04 305.911 81.6C305.911 100 317.271 115.52 332.151 115.52C339.671 115.52 345.751 112.32 351.831 107.84C354.871 105.44 357.271 105.92 360.471 109.6C363.191 112.8 363.351 115.84 359.831 120.48C351.671 131.04 338.551 138.56 322.551 138.56ZM368.016 136C362.896 136 360.656 132.8 360.656 129.12C360.656 126.56 361.776 124.64 365.136 122.56C368.816 120.16 369.776 117.6 369.776 110.72V42.72C369.776 35.84 368.496 33.12 364.336 30.56C361.296 28.64 360.336 26.56 360.336 24.16C360.336 20.48 362.576 17.28 367.856 17.28H390.896C395.376 17.28 398.096 19.52 398.096 24.32L397.776 54.88C397.776 57.6 400.016 58.4 401.776 55.68C405.936 50.24 413.296 45.76 422.256 45.76C436.816 45.76 445.776 53.6 448.496 71.2L454.256 108.64C455.216 114.72 456.976 118.88 460.336 121.6C463.376 123.84 464.816 126.24 464.816 129.44C464.816 133.12 462.736 136 457.936 136H444.016C432.656 136 427.376 131.68 425.936 119.84L421.616 82.24C420.656 73.28 416.016 69.28 409.136 69.28C402.736 69.28 398.096 73.12 398.096 78.72V110.24C398.096 117.12 399.056 119.84 403.216 122.24C406.896 124.32 408.176 126.4 408.176 128.96C408.176 132.64 405.776 136 400.016 136H368.016ZM501.077 136C495.637 136 493.397 132.64 493.397 128.8C493.397 126.24 494.357 124 497.717 122.24C502.677 119.52 503.637 116.64 503.637 109.76V44.96C503.637 38.08 502.357 35.2 497.557 32.48C494.197 30.56 493.237 28.48 493.237 25.76C493.237 21.92 495.637 18.72 500.917 18.72H574.677C579.957 18.72 582.677 20.48 584.277 24.96C585.877 30.4 589.877 42.72 589.877 48.48C589.877 52.48 587.797 54.4 584.757 54.4C579.797 54.4 571.317 47.68 566.837 44.16C560.277 38.88 553.877 35.36 546.357 35.36C537.877 35.36 534.357 40.48 534.357 52V59.2C534.357 65.12 535.637 66.4 540.757 66.4L568.437 66.56C572.117 66.56 574.677 68.32 574.677 72.16C574.677 76.64 571.637 83.36 568.277 87.04C566.677 88.96 564.437 90.08 561.877 90.08C556.117 90.08 546.837 84.64 541.077 84.64C537.077 84.64 534.517 87.52 534.517 93.28V108.64C534.357 116 536.117 118.88 542.517 121.76C546.837 123.84 548.117 126.08 547.957 128.8C547.957 132.8 544.917 136.16 537.717 136H501.077ZM616.534 137.92C601.334 137.92 586.294 127.2 586.294 107.52C586.294 87.84 604.214 76.32 620.374 76.32C627.254 76.32 632.534 77.6 634.934 77.6C636.534 77.6 637.334 76.8 637.334 75.04C637.334 68.8 632.534 62.72 624.374 62.72C616.694 62.72 608.054 68.8 601.334 73.12C596.534 76 593.654 74.24 591.574 69.44C587.254 58.72 587.734 53.6 594.134 50.72C599.574 48.16 612.694 46.24 623.094 46.24C649.654 46.24 664.054 54.72 666.934 77.76L670.294 105.92C671.574 114.4 673.814 118.88 677.494 122.24C679.734 124.32 680.694 126.24 680.694 128.8C680.694 133.76 674.134 137.76 665.814 137.44C658.774 137.44 653.014 135.52 647.734 130.72C645.494 128.8 644.214 128.96 641.974 130.56C634.774 135.52 626.134 137.92 616.534 137.92ZM615.574 104.16C615.574 111.68 620.534 120 629.654 120C638.134 120 643.414 115.2 642.294 108.16L640.854 98.56C639.894 93.28 637.654 90.88 629.654 90.88C620.054 90.88 615.574 97.76 615.574 104.16ZM689.086 136C683.806 136 681.566 132.8 681.566 129.12C681.566 126.56 682.686 124.64 686.046 122.56C689.886 120.16 690.686 117.6 690.686 110.72V72.96C690.846 66.24 689.566 63.52 685.246 60.96C682.206 59.04 681.246 57.12 681.406 54.56C681.406 50.88 683.486 47.68 688.766 47.68L691.006 47.84H710.846C715.166 47.84 716.446 50.08 718.046 55.52C718.366 57.44 720.126 58.08 721.726 56.16C726.526 49.76 734.846 45.76 744.126 45.76C754.366 45.76 761.406 49.76 766.686 57.12C767.326 58.08 767.806 59.2 768.926 59.2C770.046 59.2 770.526 58.24 771.326 56.96C777.406 49.6 784.766 45.92 794.846 45.92C812.926 45.92 823.486 57.44 823.486 77.76V110.72C823.486 117.6 824.446 120.16 828.126 122.56C831.486 124.64 832.606 126.56 832.606 129.12C832.606 132.8 830.366 136 825.246 136H796.766C790.366 136 787.166 133.28 787.166 128.48C787.166 126.08 788.446 124.16 791.006 121.92C794.046 119.52 795.166 117.6 795.166 112V82.08C795.166 73.76 790.846 68.8 782.846 68.8C775.966 68.8 771.326 73.44 771.326 81.12V109.12C771.166 116.48 772.126 119.2 775.966 121.76C779.486 124 780.606 126.08 780.606 128.64C780.606 132.48 778.366 136 772.926 136H744.606C738.046 136 735.006 133.28 735.006 128.48C735.006 126.08 735.966 124.16 739.006 121.6C741.886 119.52 742.846 117.44 742.846 112V81.44C742.846 72.8 738.206 67.68 731.166 67.68C723.646 67.68 719.006 72.64 719.006 80.32V110.24C719.006 117.12 719.966 119.84 723.806 122.24C727.326 124.32 728.446 126.4 728.446 128.96C728.446 132.64 726.206 136 720.766 136H689.086ZM843.818 40.48C839.338 40.48 836.458 37.76 836.458 32.8C836.458 23.52 843.978 16 853.898 16C863.818 16 871.658 23.52 871.658 32.8C871.658 37.92 868.778 40.48 864.138 40.48H843.818ZM833.418 54.56C833.418 50.88 835.658 47.68 840.938 47.68L843.178 47.84H862.538C868.618 47.84 871.018 50.56 871.018 57.92V110.56C871.018 117.44 871.978 120.16 875.818 122.4C879.338 124.64 880.458 126.56 880.458 129.12C880.458 132.8 878.218 136 872.778 136H841.098C835.818 136 833.738 132.8 833.738 129.12C833.738 126.56 834.858 124.64 838.218 122.56C841.898 120.16 842.858 117.6 842.858 110.72V73.12C842.858 66.24 841.578 63.52 837.418 61.12C834.378 59.04 833.418 56.96 833.418 54.56ZM889.037 136C883.757 136 881.517 132.8 881.517 129.12C881.517 126.56 882.637 124.64 885.997 122.56C889.837 120.16 890.637 117.6 890.637 110.72V42.56C890.637 35.84 889.517 32.96 885.197 30.56C882.157 28.64 881.197 26.56 881.197 24C881.357 20.48 883.437 17.12 888.717 17.28H911.597C916.237 17.28 919.117 19.52 919.117 25.6V110.56C918.957 117.44 919.917 120.16 923.757 122.4C927.277 124.64 928.397 126.56 928.397 129.12C928.397 132.8 926.157 136 920.717 136H889.037ZM942.677 165.12C938.837 165.12 935.957 162.08 935.957 159.2C935.957 156.48 937.717 154.72 939.157 153.44L956.437 138.88C959.317 136.48 959.477 134.24 957.717 130.88C948.277 110.88 939.477 90.08 931.637 68.96C930.197 65.28 928.917 63.52 926.517 61.28C924.117 59.52 922.997 57.28 922.997 54.72C922.997 50.72 925.877 47.84 930.997 47.84H962.037C968.117 47.84 970.677 49.92 970.677 54.56C970.677 57.44 969.237 59.04 965.717 60.96C960.117 64.64 961.397 67.2 963.157 72.96C966.197 82.88 969.877 92.8 975.317 104.32C976.917 107.52 978.357 107.52 979.637 104.32C984.437 92.8 988.117 82.56 990.677 72.96C992.117 68 992.117 65.28 987.957 61.92C986.037 60.16 983.637 57.76 983.637 54.4C983.637 50.56 986.037 47.84 990.197 47.84H1012.12C1016.76 47.84 1019.32 50.88 1019.32 54.24C1019.32 56.64 1018.52 58.72 1015.96 60.96C1013.72 63.04 1011.96 65.6 1009.88 72.32C1003.96 91.2 997.237 109.28 990.037 126.88C984.597 139.68 979.477 151.36 972.437 160.8C970.357 163.84 967.637 165.12 963.957 165.12H942.677ZM140.394 280.8C137.354 280.8 136.074 279.04 134.634 275.04C126.954 251.52 118.634 215.52 115.274 181.92C114.954 177.12 113.834 175.04 110.314 173.28C107.114 171.68 106.314 170.08 106.794 167.84C107.114 165.12 109.194 164 111.914 164H141.354C144.874 164 145.994 166.08 145.674 168.8C145.194 171.2 142.954 172.64 138.154 172.96C132.074 173.44 130.634 175.04 130.954 179.52C132.714 203.68 139.754 239.2 147.114 260.48C147.754 262.4 149.034 262.24 150.154 260.64C164.394 241.44 182.154 207.36 191.434 181.12C193.194 176 192.394 174.24 184.874 172.64C181.674 171.68 180.554 170.24 180.874 167.84C181.354 165.12 183.274 164 185.994 164H213.194C215.754 164 217.034 165.92 216.554 168.48C216.234 170.56 215.114 172 211.914 173.12C208.074 174.08 205.994 175.68 204.234 180.16C190.314 215.84 170.634 253.76 153.354 276.64C150.954 280 149.674 280.8 146.954 280.8C146.314 280.8 144.394 280.64 143.114 280.64C142.154 280.64 141.034 280.8 140.394 280.8ZM220.902 182.56C218.342 182.56 217.222 181.12 217.702 178.24C218.982 171.52 224.902 166.24 231.142 166.24C238.502 166.24 242.982 171.68 241.862 178.88C241.222 181.76 239.782 182.56 237.222 182.56H220.902ZM200.262 275.84C200.742 273.6 202.342 272.16 206.022 271.36C210.982 270.08 212.102 267.84 212.902 262.56L222.022 211.04C222.982 206.4 222.342 204.96 216.902 203.2C213.542 201.92 212.582 200.48 212.902 198.08C213.222 195.52 215.302 194.4 218.502 194.56L226.982 194.88H233.542C237.862 194.88 239.302 197.12 238.502 201.28L227.302 264.32C226.342 268.8 226.502 270.08 231.942 271.36C235.302 272.48 236.262 273.76 236.102 276.16C235.942 278.72 233.862 280 230.822 280H210.342L205.062 280.32C201.702 280.48 199.782 278.56 200.262 275.84ZM242.997 268.16C239.317 263.68 240.277 259.84 243.957 256C245.077 254.56 246.517 253.44 247.957 253.6C249.397 253.76 250.357 254.88 252.117 257.28C257.557 267.2 267.957 273.44 279.317 273.44C288.277 273.44 295.477 268.64 296.757 261.76C298.197 253.44 293.237 246.72 276.437 242.24C254.197 236 247.957 227.84 250.197 214.4C252.437 201.6 266.037 192.32 282.837 192.32C295.157 192.32 308.597 198.4 314.197 207.04C317.397 211.04 316.437 213.92 313.077 217.76C311.637 219.2 310.517 219.84 309.397 219.68C308.277 219.68 306.997 218.4 305.557 216.48C300.437 207.2 291.957 201.12 281.557 201.12C273.077 201.12 265.877 206.4 264.597 213.28C263.477 220.64 268.437 225.76 285.557 230.4C306.837 236.48 314.037 245.28 311.317 260.8C308.917 273.76 295.637 282.4 278.517 282.4C263.797 282.4 249.877 276.8 242.997 268.16ZM332.389 182.56C329.829 182.56 328.709 181.12 329.189 178.24C330.469 171.52 336.389 166.24 342.629 166.24C349.989 166.24 354.469 171.68 353.349 178.88C352.709 181.76 351.269 182.56 348.709 182.56H332.389ZM311.749 275.84C312.229 273.6 313.829 272.16 317.509 271.36C322.469 270.08 323.589 267.84 324.389 262.56L333.509 211.04C334.469 206.4 333.829 204.96 328.389 203.2C325.029 201.92 324.069 200.48 324.389 198.08C324.709 195.52 326.789 194.4 329.989 194.56L338.469 194.88H345.029C349.349 194.88 350.789 197.12 349.989 201.28L338.789 264.32C337.829 268.8 337.989 270.08 343.429 271.36C346.789 272.48 347.749 273.76 347.589 276.16C347.429 278.72 345.349 280 342.309 280H321.829L316.549 280.32C313.189 280.48 311.269 278.56 311.749 275.84ZM373.037 280C361.517 280 358.317 273.28 360.397 261.92C361.357 256 363.917 248.16 366.637 238.08C370.157 225.76 372.237 217.44 373.677 209.44C374.477 204.16 372.397 203.2 362.797 203.68C359.917 203.68 358.477 202.08 359.117 199.2C359.437 196.96 360.877 195.68 363.757 194.88C368.717 193.6 372.397 192 375.277 189.6C379.277 186.24 381.517 183.04 384.237 177.92C385.517 175.68 387.117 174.4 389.037 174.4C391.117 174.4 392.077 176 391.597 178.88L389.037 192.16C388.557 194.08 388.877 194.88 390.957 194.88H404.557C406.797 194.88 407.437 196.48 406.637 200.64C406.157 203.2 405.037 204 402.957 204L390.157 204.16C387.597 204.16 386.797 204 386.157 207.2C382.477 227.84 377.997 248.32 375.917 260.16C374.637 267.2 376.877 268.32 389.357 270.56C394.157 271.68 395.757 273.28 395.117 276C394.797 278.56 393.197 280 389.837 280H373.037ZM422.471 182.56C419.911 182.56 418.791 181.12 419.271 178.24C420.551 171.52 426.471 166.24 432.711 166.24C440.071 166.24 444.551 171.68 443.431 178.88C442.791 181.76 441.351 182.56 438.791 182.56H422.471ZM401.831 275.84C402.311 273.6 403.911 272.16 407.591 271.36C412.551 270.08 413.671 267.84 414.471 262.56L423.591 211.04C424.551 206.4 423.911 204.96 418.471 203.2C415.111 201.92 414.151 200.48 414.471 198.08C414.791 195.52 416.871 194.4 420.071 194.56L428.551 194.88H435.111C439.431 194.88 440.871 197.12 440.071 201.28L428.871 264.32C427.911 268.8 428.071 270.08 433.511 271.36C436.871 272.48 437.831 273.76 437.671 276.16C437.511 278.72 435.431 280 432.391 280H411.911L406.631 280.32C403.271 280.48 401.351 278.56 401.831 275.84ZM511.758 281.6C501.358 281.6 496.878 275.04 500.558 264.96L514.798 228.64C520.718 213.6 512.878 203.52 501.038 203.52C488.878 203.68 474.958 212 473.038 222.72L464.238 271.68C462.958 279.2 460.558 281.44 454.638 281.44H451.758C447.918 281.44 446.158 278.88 446.958 275.52L460.878 212.48C462.318 207.2 462.478 204.8 456.558 203.04C453.518 201.92 452.238 200.48 452.558 198.4C453.038 195.84 455.598 194.4 458.958 194.56L466.958 194.88H471.758C475.438 194.88 476.398 197.44 475.438 203.2C475.278 205.44 476.558 205.92 478.638 203.84C486.318 196.8 496.878 192.64 506.638 192.64C525.198 192.64 538.318 207.84 529.838 228.8L514.958 265.28C513.358 269.12 514.958 269.92 517.518 269.92C520.238 269.92 523.118 269.12 527.598 267.36C529.838 266.56 531.118 266.4 532.238 268.48C533.998 271.2 533.358 274.24 529.518 276.48C524.238 279.36 516.078 281.6 511.758 281.6ZM548.079 206.24C544.879 208.32 542.639 207.68 541.199 205.44C540.079 203.68 540.719 202.24 542.799 200.96C550.319 195.68 554.799 189.92 555.599 185.76C555.919 183.84 555.119 183.04 553.359 182.72C548.559 181.44 546.159 178.08 546.959 172.96C548.239 166.4 553.359 161.92 559.279 162.56C566.479 163.2 570.159 169.76 568.399 179.2C566.639 189.44 558.639 200.32 548.079 206.24ZM651.622 282.4C618.182 282.4 591.622 252.8 598.662 214.56C603.782 186.24 630.822 161.6 661.382 161.6C680.422 161.6 699.302 171.84 709.222 187.52C713.702 193.28 712.582 198.72 705.702 203.52C702.022 206.24 699.622 205.6 698.022 201.76C689.222 182.4 676.902 172 659.462 172C638.342 172 619.462 189.12 615.302 212.96C610.342 242.08 626.822 269.6 655.622 269.6C670.022 269.6 683.782 263.04 695.782 252C697.862 250.08 699.622 250.24 701.702 252.8C703.622 255.04 702.822 257.44 700.582 260.16C689.222 273.12 670.022 282.4 651.622 282.4ZM709.993 280L704.713 280.32C701.353 280.48 699.433 278.56 699.913 276C700.393 273.76 701.993 272.48 705.833 271.52C710.793 270.4 711.753 268.16 712.713 263.04L727.433 179.36C728.393 174.72 727.753 173.28 722.313 171.52C718.953 170.08 717.833 168.8 718.153 166.24C718.633 163.68 720.713 162.56 723.913 162.72L732.713 163.04H738.953C742.953 163.04 744.553 165.28 743.913 169.28L726.953 263.52C725.993 268.16 726.153 269.6 731.913 271.04C735.433 272.16 736.553 273.44 736.393 276C736.073 278.72 733.993 280 730.793 280H709.993ZM771.836 282.24C754.876 282.24 744.956 271.52 748.636 254.08L756.956 212.48C758.236 207.2 757.756 204.8 751.996 202.72C748.956 201.44 747.676 200.16 748.316 198.08C748.796 195.52 751.196 194.08 754.556 194.4L762.716 194.88H769.116C773.116 194.88 774.716 197.28 773.916 201.28L763.196 253.92C761.116 263.84 767.196 271.2 776.796 271.36C789.596 271.36 803.356 261.44 805.276 250.4L812.156 212.8C813.276 207.36 812.796 204.96 806.716 202.88C803.676 201.76 802.396 200.32 802.716 198.24C803.196 195.68 805.756 194.24 809.276 194.4L817.596 194.88H823.836C828.156 194.88 829.756 197.12 828.956 201.92L817.596 260.96C816.796 266.4 817.276 267.84 825.116 266.24C828.796 265.92 830.716 267.2 830.556 269.92C830.396 272.64 828.156 274.24 823.996 275.68L814.076 279.04L807.836 280.64C803.196 281.92 801.916 279.2 802.396 271.84C802.556 269.12 800.796 269.44 799.196 271.2C791.836 278.08 781.276 282.24 771.836 282.24ZM877.991 282.08C863.431 281.92 845.351 276 835.751 269.28C833.511 267.52 832.231 265.6 832.711 262.88C833.031 260.32 835.271 259.52 839.111 259.84C842.311 260 844.071 258.4 845.191 252.32L857.671 180C858.631 175.04 857.831 173.6 851.911 171.84C848.391 170.4 847.271 168.96 847.591 166.4C847.911 163.84 850.311 162.56 853.671 162.72L862.951 163.04H869.671C873.671 163.04 874.951 165.44 874.311 169.28L868.871 201.12C868.551 203.2 869.831 203.84 871.591 202.08C877.991 196.16 887.431 192.32 896.711 192.32C917.991 192.8 933.351 210.88 927.911 240.8C923.271 266.24 903.431 282.56 877.991 282.08ZM858.631 257.28C857.511 264 859.111 267.36 865.191 269.76C868.231 271.04 873.351 272.32 879.431 272.32C895.751 272.32 909.191 260.32 912.551 242.4C916.391 222.08 907.431 203.52 890.951 203.52C878.151 203.52 866.311 213.6 864.071 226.24L858.631 257.28Z" fill="#FB5B12"/>
</svg>
