<svg xmlns="http://www.w3.org/2000/svg" width="1032" height="308" fill="none"><path fill="#FB5B12" d="M10.833 141c-5.6 0-7.84-3.36-7.84-7.2 0-2.56.96-4.8 4.32-6.56 4.96-2.72 6.08-5.44 5.92-12.48v-64.8c.16-6.88-.96-9.76-5.92-12.32-3.36-1.92-4.32-4-4.32-6.72 0-3.84 2.24-7.2 7.68-7.2h58.56c25.12 0 38.08 9.28 38.08 28 0 8.16-4 14.56-15.36 22.08-2.08 1.44-2.08 3.2-.16 4.32 14.72 7.36 20.96 17.12 20.96 30.4 0 19.84-15.36 32.48-34.88 32.48h-67.04Zm33.44-31.84c0 11.52 5.44 15.52 16.48 15.52 11.84 0 19.68-7.68 19.68-17.12 0-7.04-2.88-12-8-15.68-3.36-2.4-7.2-3.84-11.2-3.84-4 0-8.64 1.44-13.6 3.36-2.24 1.12-3.36 2.88-3.36 5.28v12.48Zm0-37.6c0 2.72 1.6 3.52 3.84 2.56 5.12-1.92 12.96-4.32 16.96-6.24 6.4-2.72 9.76-7.52 9.76-13.28 0-8.64-5.92-13.76-17.28-13.76h-8.48c-3.36 0-4.8 1.44-4.8 4.48v26.24Zm104.225 72.16c-16.96-.16-28.8-8.16-28.8-27.68V78.12c0-6.88-1.12-9.6-5.44-12-3.04-2.08-4-4.16-4-6.56 0-3.68 2.24-6.88 7.52-6.88l2.24.16h19.84c5.92 0 8.64 2.56 8.48 8.8l-.32 45.6c-.16 8.16 4 12.8 11.84 12.8 8.32 0 13.76-5.28 13.76-12.64V78.12c0-6.88-1.28-9.6-6.08-12.16-3.36-1.92-4.48-4-4.32-6.4 0-3.68 2.4-6.88 8.32-6.88l2.4.16h19.68c6.56 0 8.48 2.56 8.48 9.6l-.16 53.28c0 6.88.8 9.44 4.64 11.84 3.36 2.08 4.48 4 4.48 6.56 0 3.68-2.24 6.88-7.52 6.88h-21.76c-4.64 0-6.24-1.92-7.36-6.72-.64-2.56-3.2-3.36-4.96-.8-4.48 6.56-12.48 10.4-20.96 10.24Zm72.9-2.72c-5.28 0-7.36-3.2-7.36-6.88 0-2.56 1.12-4.48 4.48-6.56 3.68-2.4 4.64-4.96 4.64-11.84v-37.6c0-6.88-1.28-9.6-5.44-12-3.04-2.08-4-4.16-4-6.56 0-3.68 2.24-6.88 7.52-6.88l2.24.16h20.16c3.68 0 5.76 1.6 6.88 5.12l.8 2.88c.48 1.76 2.24 1.92 3.36.16 4.8-7.2 9.28-9.6 15.04-9.6 6.4 0 10.24 3.68 10.24 12.64 0 9.92-4.64 23.04-10.88 23.04-1.76 0-3.52-.96-5.12-2.72-2.08-2.4-3.68-3.2-6.24-3.2-3.68 0-6.24 2.56-6.24 7.84v26.4c-.16 6.88.96 9.6 5.28 12 3.84 2.08 5.12 4.16 5.12 6.56 0 3.68-2.56 7.04-8.48 7.04h-32Zm103.553 2.56c-24 0-46.24-19.04-46.24-47.68 0-26.4 21.76-45.76 47.36-45.76 12.48 0 25.44 5.12 32.8 12 8.16 7.2 6.08 12-1.76 19.68-5.28 4.96-8.8 7.04-11.84 7.04-2.4 0-4.48-1.6-6.4-5.12-5.28-9.12-10.24-15.2-17.6-15.2-7.52 0-12.96 7.52-12.96 18.08 0 18.4 11.36 33.92 26.24 33.92 7.52 0 13.6-3.2 19.68-7.68 3.04-2.4 5.44-1.92 8.64 1.76 2.72 3.2 2.88 6.24-.64 10.88-8.16 10.56-21.28 18.08-37.28 18.08Zm46.265-2.56c-5.12 0-7.36-3.2-7.36-6.88 0-2.56 1.12-4.48 4.48-6.56 3.68-2.4 4.64-4.96 4.64-11.84v-68c0-6.88-1.28-9.6-5.44-12.16-3.04-1.92-4-4-4-6.4 0-3.68 2.24-6.88 7.52-6.88h23.04c4.48 0 7.2 2.24 7.2 7.04l-.32 30.56c0 2.72 2.24 3.52 4 .8 4.16-5.44 11.52-9.92 20.48-9.92 14.56 0 23.52 7.84 26.24 25.44l5.76 37.44c.96 6.08 2.72 10.24 6.08 12.96 3.04 2.24 4.48 4.64 4.48 7.84 0 3.68-2.08 6.56-6.88 6.56h-13.92c-11.36 0-16.64-4.32-18.08-16.16l-4.32-37.6c-.96-8.96-5.6-12.96-12.48-12.96-6.4 0-11.04 3.84-11.04 9.44v31.52c0 6.88.96 9.6 5.12 12 3.68 2.08 4.96 4.16 4.96 6.72 0 3.68-2.4 7.04-8.16 7.04h-32Zm133.061 0c-5.44 0-7.68-3.36-7.68-7.2 0-2.56.96-4.8 4.32-6.56 4.96-2.72 5.92-5.6 5.92-12.48v-64.8c0-6.88-1.28-9.76-6.08-12.48-3.36-1.92-4.32-4-4.32-6.72 0-3.84 2.4-7.04 7.68-7.04h73.76c5.28 0 8 1.76 9.6 6.24 1.6 5.44 5.6 17.76 5.6 23.52 0 4-2.08 5.92-5.12 5.92-4.96 0-13.44-6.72-17.92-10.24-6.56-5.28-12.96-8.8-20.48-8.8-8.48 0-12 5.12-12 16.64v7.2c0 5.92 1.28 7.2 6.4 7.2l27.68.16c3.68 0 6.24 1.76 6.24 5.6 0 4.48-3.04 11.2-6.4 14.88-1.6 1.92-3.84 3.04-6.4 3.04-5.76 0-15.04-5.44-20.8-5.44-4 0-6.56 2.88-6.56 8.64v15.36c-.16 7.36 1.6 10.24 8 13.12 4.32 2.08 5.6 4.32 5.44 7.04 0 4-3.04 7.36-10.24 7.2h-36.64Zm117.057 1.92c-15.2 0-30.24-10.72-30.24-30.4s17.92-31.2 34.08-31.2c6.88 0 12.16 1.28 14.56 1.28 1.6 0 2.4-.8 2.4-2.56 0-6.24-4.8-12.32-12.96-12.32-7.68 0-16.32 6.08-23.04 10.4-4.8 2.88-7.68 1.12-9.76-3.68-4.32-10.72-3.84-15.84 2.56-18.72 5.44-2.56 18.56-4.48 28.96-4.48 26.56 0 40.96 8.48 43.84 31.52l3.36 28.16c1.28 8.48 3.52 12.96 7.2 16.32 2.24 2.08 3.2 4 3.2 6.56 0 4.96-6.56 8.96-14.88 8.64-7.04 0-12.8-1.92-18.08-6.72-2.24-1.92-3.52-1.76-5.76-.16-7.2 4.96-15.84 7.36-25.44 7.36Zm-.96-33.76c0 7.52 4.96 15.84 14.08 15.84 8.48 0 13.76-4.8 12.64-11.84l-1.44-9.6c-.96-5.28-3.2-7.68-11.2-7.68-9.6 0-14.08 6.88-14.08 13.28ZM695.486 141c-5.28 0-7.52-3.2-7.52-6.88 0-2.56 1.12-4.48 4.48-6.56 3.84-2.4 4.64-4.96 4.64-11.84V77.96c.16-6.72-1.12-9.44-5.44-12-3.04-1.92-4-3.84-3.84-6.4 0-3.68 2.08-6.88 7.36-6.88l2.24.16h19.84c4.32 0 5.6 2.24 7.2 7.68.32 1.92 2.08 2.56 3.68.64 4.8-6.4 13.12-10.4 22.4-10.4 10.24 0 17.28 4 22.56 11.36.64.96 1.12 2.08 2.24 2.08s1.6-.96 2.4-2.24c6.08-7.36 13.44-11.04 23.52-11.04 18.08 0 28.64 11.52 28.64 31.84v32.96c0 6.88.96 9.44 4.64 11.84 3.36 2.08 4.48 4 4.48 6.56 0 3.68-2.24 6.88-7.36 6.88h-28.48c-6.4 0-9.6-2.72-9.6-7.52 0-2.4 1.28-4.32 3.84-6.56 3.04-2.4 4.16-4.32 4.16-9.92V87.08c0-8.32-4.32-13.28-12.32-13.28-6.88 0-11.52 4.64-11.52 12.32v28c-.16 7.36.8 10.08 4.64 12.64 3.52 2.24 4.64 4.32 4.64 6.88 0 3.84-2.24 7.36-7.68 7.36h-28.32c-6.56 0-9.6-2.72-9.6-7.52 0-2.4.96-4.32 4-6.88 2.88-2.08 3.84-4.16 3.84-9.6V86.44c0-8.64-4.64-13.76-11.68-13.76-7.52 0-12.16 4.96-12.16 12.64v29.92c0 6.88.96 9.6 4.8 12 3.52 2.08 4.64 4.16 4.64 6.72 0 3.68-2.24 7.04-7.68 7.04h-31.68Zm157.932-95.52c-4.48 0-7.36-2.72-7.36-7.68 0-9.28 7.52-16.8 17.44-16.8 9.92 0 17.76 7.52 17.76 16.8 0 5.12-2.88 7.68-7.52 7.68h-20.32Zm-10.4 14.08c0-3.68 2.24-6.88 7.52-6.88l2.24.16h19.36c6.08 0 8.48 2.72 8.48 10.08v52.64c0 6.88.96 9.6 4.8 11.84 3.52 2.24 4.64 4.16 4.64 6.72 0 3.68-2.24 6.88-7.68 6.88h-31.68c-5.28 0-7.36-3.2-7.36-6.88 0-2.56 1.12-4.48 4.48-6.56 3.68-2.4 4.64-4.96 4.64-11.84v-37.6c0-6.88-1.28-9.6-5.44-12-3.04-2.08-4-4.16-4-6.56ZM901.837 141c-5.28 0-7.52-3.2-7.52-6.88 0-2.56 1.12-4.48 4.48-6.56 3.84-2.4 4.64-4.96 4.64-11.84V47.56c0-6.72-1.12-9.6-5.44-12-3.04-1.92-4-4-4-6.56.16-3.52 2.24-6.88 7.52-6.72h22.88c4.64 0 7.52 2.24 7.52 8.32v84.96c-.16 6.88.8 9.6 4.64 11.84 3.52 2.24 4.64 4.16 4.64 6.72 0 3.68-2.24 6.88-7.68 6.88h-31.68Zm52.84 29.12c-3.84 0-6.72-3.04-6.72-5.92 0-2.72 1.76-4.48 3.2-5.76l17.28-14.56c2.88-2.4 3.04-4.64 1.28-8-9.44-20-18.24-40.8-26.08-61.92-1.44-3.68-2.72-5.44-5.12-7.68-2.4-1.76-3.52-4-3.52-6.56 0-4 2.88-6.88 8-6.88h31.04c6.08 0 8.64 2.08 8.64 6.72 0 2.88-1.44 4.48-4.96 6.4-5.6 3.68-4.32 6.24-2.56 12 3.04 9.92 6.72 19.84 12.16 31.36 1.6 3.2 3.04 3.2 4.32 0 4.8-11.52 8.483-21.76 11.043-31.36 1.44-4.96 1.44-7.68-2.723-11.04-1.92-1.76-4.32-4.16-4.32-7.52 0-3.84 2.4-6.56 6.563-6.56h21.92c4.64 0 7.2 3.04 7.2 6.4 0 2.4-.8 4.48-3.36 6.72-2.24 2.08-4 4.64-6.08 11.36-5.92 18.88-12.64 36.96-19.84 54.56-5.443 12.8-10.563 24.48-17.603 33.92-2.08 3.04-4.8 4.32-8.48 4.32h-21.28ZM156.794 295.8c-3.04 0-4.32-1.76-5.76-5.76-7.68-23.52-16-59.52-19.36-93.12-.32-4.8-1.44-6.88-4.96-8.64-3.2-1.6-4-3.2-3.52-5.44.32-2.72 2.4-3.84 5.12-3.84h29.44c3.52 0 4.64 2.08 4.32 4.8-.48 2.4-2.72 3.84-7.52 4.16-6.08.48-7.52 2.08-7.2 6.56 1.76 24.16 8.8 59.68 16.16 80.96.64 1.92 1.92 1.76 3.04.16 14.24-19.2 32-53.28 41.28-79.52 1.76-5.12.96-6.88-6.56-8.48-3.2-.96-4.32-2.4-4-4.8.48-2.72 2.4-3.84 5.12-3.84h27.2c2.56 0 3.84 1.92 3.36 4.48-.32 2.08-1.44 3.52-4.64 4.64-3.84.96-5.92 2.56-7.68 7.04-13.92 35.68-33.6 73.6-50.88 96.48-2.4 3.36-3.68 4.16-6.4 4.16-.64 0-2.56-.16-3.84-.16-.96 0-2.08.16-2.72.16Zm78.908-98.24c-2.56 0-3.68-1.44-3.2-4.32 1.28-6.72 7.2-12 13.44-12 7.36 0 11.84 5.44 10.72 12.64-.64 2.88-2.08 3.68-4.64 3.68h-16.32Zm-20.64 93.28c.48-2.24 2.08-3.68 5.76-4.48 4.96-1.28 6.08-3.52 6.88-8.8l9.12-51.52c.96-4.64.32-6.08-5.12-7.84-3.36-1.28-4.32-2.72-4-5.12.32-2.56 2.4-3.68 5.6-3.52l8.48.32h6.56c4.32 0 5.76 2.24 4.96 6.4l-11.2 63.04c-.96 4.48-.8 5.76 4.64 7.04 3.36 1.12 4.32 2.4 4.16 4.8-.16 2.56-2.24 3.84-5.28 3.84h-20.48l-5.28.32c-3.36.16-5.28-1.76-4.8-4.48Zm41.935-7.68c-3.68-4.48-2.72-8.32.96-12.16 1.12-1.44 2.56-2.56 4-2.4 1.44.16 2.4 1.28 4.16 3.68 5.44 9.92 15.84 16.16 27.2 16.16 8.96 0 16.16-4.8 17.44-11.68 1.44-8.32-3.52-15.04-20.32-19.52-22.24-6.24-28.48-14.4-26.24-27.84 2.24-12.8 15.84-22.08 32.64-22.08 12.32 0 25.76 6.08 31.36 14.72 3.2 4 2.24 6.88-1.12 10.72-1.44 1.44-2.56 2.08-3.68 1.92-1.12 0-2.4-1.28-3.84-3.2-5.12-9.28-13.6-15.36-24-15.36-8.48 0-15.68 5.28-16.96 12.16-1.12 7.36 3.84 12.48 20.96 17.12 21.28 6.08 28.48 14.88 25.76 30.4-2.4 12.96-15.68 21.6-32.8 21.6-14.72 0-28.64-5.6-35.52-14.24Zm88.592-85.6c-2.56 0-3.68-1.44-3.2-4.32 1.28-6.72 7.2-12 13.44-12 7.36 0 11.84 5.44 10.72 12.64-.64 2.88-2.08 3.68-4.64 3.68h-16.32Zm-20.64 93.28c.48-2.24 2.08-3.68 5.76-4.48 4.96-1.28 6.08-3.52 6.88-8.8l9.12-51.52c.96-4.64.32-6.08-5.12-7.84-3.36-1.28-4.32-2.72-4-5.12.32-2.56 2.4-3.68 5.6-3.52l8.48.32h6.56c4.32 0 5.76 2.24 4.96 6.4l-11.2 63.04c-.96 4.48-.8 5.76 4.64 7.04 3.36 1.12 4.32 2.4 4.16 4.8-.16 2.56-2.24 3.84-5.28 3.84h-20.48l-5.28.32c-3.36.16-5.28-1.76-4.8-4.48Zm60.488 4.16c-11.52 0-14.72-6.72-12.64-18.08.96-5.92 3.52-13.76 6.24-23.84 3.52-12.32 5.6-20.64 7.04-28.64.8-5.28-1.28-6.24-10.88-5.76-2.88 0-4.32-1.6-3.68-4.48.32-2.24 1.76-3.52 4.64-4.32 4.96-1.28 8.64-2.88 11.52-5.28 4-3.36 6.24-6.56 8.96-11.68 1.28-2.24 2.88-3.52 4.8-3.52 2.08 0 3.04 1.6 2.56 4.48l-2.56 13.28c-.48 1.92-.16 2.72 1.92 2.72h13.6c2.24 0 2.88 1.6 2.08 5.76-.48 2.56-1.6 3.36-3.68 3.36l-12.8.16c-2.56 0-3.36-.16-4 3.04-3.68 20.64-8.16 41.12-10.24 52.96-1.28 7.04.96 8.16 13.44 10.4 4.8 1.12 6.4 2.72 5.76 5.44-.32 2.56-1.92 4-5.28 4h-16.8Zm48.634-97.44c-2.56 0-3.68-1.44-3.2-4.32 1.28-6.72 7.2-12 13.44-12 7.36 0 11.84 5.44 10.72 12.64-.64 2.88-2.08 3.68-4.64 3.68h-16.32Zm-20.64 93.28c.48-2.24 2.08-3.68 5.76-4.48 4.96-1.28 6.08-3.52 6.88-8.8l9.12-51.52c.96-4.64.32-6.08-5.12-7.84-3.36-1.28-4.32-2.72-4-5.12.32-2.56 2.4-3.68 5.6-3.52l8.48.32h6.56c4.32 0 5.76 2.24 4.96 6.4l-11.2 63.04c-.96 4.48-.8 5.76 4.64 7.04 3.36 1.12 4.32 2.4 4.16 4.8-.16 2.56-2.24 3.84-5.28 3.84h-20.48l-5.28.32c-3.36.16-5.28-1.76-4.8-4.48Zm109.127 5.76c-10.4 0-14.88-6.56-11.2-16.64l14.24-36.32c5.92-15.04-1.92-25.12-13.76-25.12-12.16.16-26.08 8.48-28 19.2l-8.8 48.96c-1.28 7.52-3.68 9.76-9.6 9.76h-2.88c-3.84 0-5.6-2.56-4.8-5.92l13.92-63.04c1.44-5.28 1.6-7.68-4.32-9.44-3.04-1.12-4.32-2.56-4-4.64.48-2.56 3.04-4 6.4-3.84l8 .32h4.8c3.68 0 4.64 2.56 3.68 8.32-.16 2.24 1.12 2.72 3.2.64 7.68-7.04 18.24-11.2 28-11.2 18.56 0 31.68 15.2 23.2 36.16l-14.88 36.48c-1.6 3.84 0 4.64 2.56 4.64 2.72 0 5.6-.8 10.08-2.56 2.24-.8 3.52-.96 4.64 1.12 1.76 2.72 1.12 5.76-2.72 8-5.28 2.88-13.44 5.12-17.76 5.12Zm36.321-75.36c-3.2 2.08-5.44 1.44-6.88-.8-1.12-1.76-.48-3.2 1.6-4.48 7.52-5.28 12-11.04 12.8-15.2.32-1.92-.48-2.72-2.24-3.04-4.8-1.28-7.2-4.64-6.4-9.76 1.28-6.56 6.4-11.04 12.32-10.4 7.2.64 10.88 7.2 9.12 16.64-1.76 10.24-9.76 21.12-20.32 27.04Zm89.143 76.16c-33.44 0-60-29.6-52.96-67.84 5.12-28.32 32.16-52.96 62.72-52.96 19.04 0 37.92 10.24 47.84 25.92 4.48 5.76 3.36 11.2-3.52 16-3.68 2.72-6.08 2.08-7.68-1.76-8.8-19.36-21.12-29.76-38.56-29.76-21.12 0-40 17.12-44.16 40.96-4.96 29.12 11.52 56.64 40.32 56.64 14.4 0 28.16-6.56 40.16-17.6 2.08-1.92 3.84-1.76 5.92.8 1.92 2.24 1.12 4.64-1.12 7.36-11.36 12.96-30.56 22.24-48.96 22.24Zm58.371-2.4-5.28.32c-3.36.16-5.28-1.76-4.8-4.32.48-2.24 2.08-3.52 5.92-4.48 4.96-1.12 5.92-3.36 6.88-8.48l14.72-83.68c.96-4.64.32-6.08-5.12-7.84-3.36-1.44-4.48-2.72-4.16-5.28.48-2.56 2.56-3.68 5.76-3.52l8.8.32h6.24c4 0 5.6 2.24 4.96 6.24l-16.96 94.24c-.96 4.64-.8 6.08 4.96 7.52 3.52 1.12 4.64 2.4 4.48 4.96-.32 2.72-2.4 4-5.6 4h-20.8Zm61.043 2.24c-16.96 0-26.88-10.72-23.2-28.16l8.32-41.6c1.28-5.28.8-7.68-4.96-9.76-3.04-1.28-4.32-2.56-3.68-4.64.48-2.56 2.88-4 6.24-3.68l8.16.48h6.4c4 0 5.6 2.4 4.8 6.4l-10.72 52.64c-2.08 9.92 4 17.28 13.6 17.44 12.8 0 26.56-9.92 28.48-20.96l6.88-37.6c1.12-5.44.64-7.84-5.44-9.92-3.04-1.12-4.32-2.56-4-4.64.48-2.56 3.04-4 6.56-3.84l8.32.48h6.24c4.32 0 5.92 2.24 5.12 7.04l-11.36 59.04c-.8 5.44-.32 6.88 7.52 5.28 3.68-.32 5.6.96 5.44 3.68-.16 2.72-2.4 4.32-6.56 5.76l-9.92 3.36-6.24 1.6c-4.64 1.28-5.92-1.44-5.44-8.8.16-2.72-1.6-2.4-3.2-.64-7.36 6.88-17.92 11.04-27.36 11.04Zm106.155-.16c-14.56-.16-32.64-6.08-42.24-12.8-2.24-1.76-3.52-3.68-3.04-6.4.32-2.56 2.56-3.36 6.4-3.04 3.2.16 4.96-1.44 6.08-7.52l12.48-72.32c.96-4.96.16-6.4-5.76-8.16-3.52-1.44-4.64-2.88-4.32-5.44.32-2.56 2.72-3.84 6.08-3.68l9.28.32h6.72c4 0 5.28 2.4 4.64 6.24l-5.44 31.84c-.32 2.08.96 2.72 2.72.96 6.4-5.92 15.84-9.76 25.12-9.76 21.28.48 36.64 18.56 31.2 48.48-4.64 25.44-24.48 41.76-49.92 41.28Zm-19.36-24.8c-1.12 6.72.48 10.08 6.56 12.48 3.04 1.28 8.16 2.56 14.24 2.56 16.32 0 29.76-12 33.12-29.92 3.84-20.32-5.12-38.88-21.6-38.88-12.8 0-24.64 10.08-26.88 22.72l-5.44 31.04Z"/></svg>